<svg xmlns="http://www.w3.org/2000/svg" width="42" height="42" fill="none" viewBox="0 0 42 42">
  <path stroke="#20FBAC" d="M28.404 2.421c.334-.455-24.9-1.234-26.45 0-1.552 1.235-.957 36.353 0 37.682.955 1.33 35.64 1.054 36.527 0 .887-1.053.648-23.919 0-24.173m-.457-8.531L41 4.555C40.685 2.67 40.198 1.797 37.851 1c0 0-25.191 22.752-25.821 23.463-.63.71-.63 4.976-.63 4.976s3.779 0 4.409-.71c.493-.557 15.656-15.06 22.215-21.33zm0 0c3.282 1.422-1.126 4.977-4.905 8.532M4.779 15.22h17.634M4.779 23.752h7.557M21.153 23.752H31.23M4.779 28.018h6.298M17.375 28.018H31.23M4.779 32.283h26.45M4.779 10.954H26.82M4.779 19.485h12.596M26.191 19.485h5.039M29.97 15.22h1.26"/>
</svg>
